<?xml version="1.0" encoding="UTF-8"?>
<svg id="Layer_2" data-name="Layer 2" xmlns="http://www.w3.org/2000/svg" viewBox="0 0 110 110">
  <defs>
    <style>
      .cls-1 {
        fill: #2d2d2d;
        stroke-width: 0px;
      }
    </style>
  </defs>
  <g id="Layer_1-2" data-name="Layer 1">
    <path class="cls-1" d="M73,110h-36c-.55,0-1-.45-1-1v-34c0-.55.45-1,1-1h36c.55,0,1,.45,1,1v34c0,.55-.45,1-1,1ZM38,108h34v-32h-34v32Z"/>
    <path class="cls-1" d="M73,76h-36c-.27,0-.52-.11-.71-.29l-18-18c-.29-.29-.37-.72-.22-1.09.15-.37.52-.62.92-.62h72c.4,0,.77.24.92.62.16.37.07.8-.22,1.09l-18,18c-.19.19-.44.29-.71.29ZM37.41,74h35.17l16-16H21.41l16,16Z"/>
    <path class="cls-1" d="M109,110h-36c-.55,0-1-.45-1-1v-34c0-.27.11-.52.29-.71l18-18c.39-.39,1.02-.39,1.41,0l18,18c.19.19.29.44.29.71v34c0,.55-.45,1-1,1ZM74,108h34v-32.59l-17-17-17,17v32.59Z"/>
    <path class="cls-1" d="M71,58h-32c-.55,0-1-.45-1-1v-29.33c0-.31.14-.59.38-.78l16-12.67c.37-.29.88-.29,1.24,0l16,12.67c.24.19.38.48.38.78v29.33c0,.55-.45,1-1,1ZM40,56h30v-27.85l-15-11.88-15,11.88v27.85Z"/>
    <path class="cls-1" d="M37,110H1c-.55,0-1-.45-1-1v-34c0-.27.11-.52.29-.71l18-18c.39-.39,1.02-.39,1.41,0l18,18c.19.19.29.44.29.71v34c0,.55-.45,1-1,1ZM2,108h34v-32.59l-17-17L2,75.41v32.59Z"/>
    <path class="cls-1" d="M55,16c-.55,0-1-.45-1-1V1c0-.55.45-1,1-1s1,.45,1,1v14c0,.55-.45,1-1,1Z"/>
    <path class="cls-1" d="M59,6h-8c-.55,0-1-.45-1-1s.45-1,1-1h8c.55,0,1,.45,1,1s-.45,1-1,1Z"/>
    <path class="cls-1" d="M55,44c-3.86,0-7-3.14-7-7s3.14-7,7-7,7,3.14,7,7-3.14,7-7,7ZM55,32c-2.76,0-5,2.24-5,5s2.24,5,5,5,5-2.24,5-5-2.24-5-5-5Z"/>
    <path class="cls-1" d="M91,88c-3.86,0-7-3.14-7-7s3.14-7,7-7,7,3.14,7,7-3.14,7-7,7ZM91,76c-2.76,0-5,2.24-5,5s2.24,5,5,5,5-2.24,5-5-2.24-5-5-5Z"/>
    <path class="cls-1" d="M19,88c-3.86,0-7-3.14-7-7s3.14-7,7-7,7,3.14,7,7-3.14,7-7,7ZM19,76c-2.76,0-5,2.24-5,5s2.24,5,5,5,5-2.24,5-5-2.24-5-5-5Z"/>
    <path class="cls-1" d="M61,110h-12c-.55,0-1-.45-1-1v-16c0-3.86,3.14-7,7-7s7,3.14,7,7v16c0,.55-.45,1-1,1ZM50,108h10v-15c0-2.76-2.24-5-5-5s-5,2.24-5,5v15Z"/>
  </g>
</svg>