<?xml version="1.0" encoding="UTF-8"?>
<svg id="Layer_2" data-name="Layer 2" xmlns="http://www.w3.org/2000/svg" viewBox="0 0 104 110">
  <defs>
    <style>
      .cls-1 {
        fill: #2d2d2d;
        stroke-width: 0px;
      }
    </style>
  </defs>
  <g id="Layer_1-2" data-name="Layer 1">
    <path class="cls-1" d="M103,22h-20c-.55,0-1-.45-1-1v-10c0-6.07,4.93-11,11-11s11,4.93,11,11v10c0,.55-.45,1-1,1ZM84,20h18v-9c0-4.96-4.04-9-9-9s-9,4.04-9,9v9Z"/>
    <path class="cls-1" d="M83,110H1c-.55,0-1-.45-1-1V11C0,4.93,4.93,0,11,0h82c.55,0,1,.45,1,1s-.45,1-1,1c-4.96,0-9,4.04-9,9v98c0,.55-.45,1-1,1ZM2,108h80V11c0-3.72,1.85-7.01,4.68-9H11C6.04,2,2,6.04,2,11v97Z"/>
    <path class="cls-1" d="M71,36.5h-12c-.55,0-1-.45-1-1s.45-1,1-1h12c.55,0,1,.45,1,1s-.45,1-1,1Z"/>
    <path class="cls-1" d="M71,77.5h-12c-.55,0-1-.45-1-1s.45-1,1-1h12c.55,0,1,.45,1,1s-.45,1-1,1Z"/>
    <path class="cls-1" d="M71,98h-12c-.55,0-1-.45-1-1s.45-1,1-1h12c.55,0,1,.45,1,1s-.45,1-1,1Z"/>
    <path class="cls-1" d="M71,57h-12c-.55,0-1-.45-1-1s.45-1,1-1h12c.55,0,1,.45,1,1s-.45,1-1,1Z"/>
    <path class="cls-1" d="M71,16H13c-.55,0-1-.45-1-1s.45-1,1-1h58c.55,0,1,.45,1,1s-.45,1-1,1Z"/>
    <path class="cls-1" d="M29,100c-.25,0-.5-.09-.7-.29l-15.44-15.09c-3.8-3.8-3.8-9.98,0-13.78,3.79-3.79,9.97-3.8,13.77,0l2.38,2.38,2.38-2.38c3.8-3.8,9.97-3.79,13.77,0,3.8,3.79,3.8,9.97,0,13.77l-15.45,15.1c-.19.19-.45.29-.7.29ZM19.74,70c-1.98,0-3.96.75-5.47,2.26-3.02,3.02-3.02,7.92,0,10.94l14.73,14.4,14.74-14.4c3.01-3.01,3.01-7.92,0-10.93-3.02-3.02-7.92-3.02-10.94,0l-3.09,3.09c-.39.39-1.02.39-1.41,0l-3.09-3.09c-1.51-1.51-3.49-2.26-5.47-2.26Z"/>
    <path class="cls-1" d="M29,60c-.25,0-.5-.09-.7-.29l-15.44-15.09c-3.8-3.8-3.8-9.98,0-13.78,3.79-3.79,9.97-3.8,13.77,0l2.38,2.38,2.38-2.38c3.8-3.8,9.97-3.79,13.77,0,3.8,3.79,3.8,9.97,0,13.77l-15.45,15.1c-.19.19-.45.29-.7.29ZM19.74,30c-1.98,0-3.96.75-5.47,2.26-3.02,3.02-3.02,7.92,0,10.94l14.73,14.4,14.74-14.4c3.01-3.01,3.01-7.92,0-10.93-3.02-3.02-7.92-3.02-10.94,0l-3.09,3.09c-.39.39-1.02.39-1.41,0l-3.09-3.09c-1.51-1.51-3.49-2.26-5.47-2.26Z"/>
    <path class="cls-1" d="M29,88c-.26,0-.51-.1-.71-.29l-6-6c-.39-.39-.39-1.02,0-1.41.39-.39,1.02-.39,1.41,0l5.29,5.29,17.29-17.29c.39-.39,1.02-.39,1.41,0,.39.39.39,1.02,0,1.41l-18,18c-.2.2-.45.29-.71.29Z"/>
    <path class="cls-1" d="M29,48c-.26,0-.51-.1-.71-.29l-6-6c-.39-.39-.39-1.02,0-1.41.39-.39,1.02-.39,1.41,0l5.29,5.29,17.29-17.29c.39-.39,1.02-.39,1.41,0,.39.39.39,1.02,0,1.41l-18,18c-.2.2-.45.29-.71.29Z"/>
  </g>
</svg>