<?xml version="1.0" encoding="UTF-8"?>
<svg id="Layer_2" data-name="Layer 2" xmlns="http://www.w3.org/2000/svg" viewBox="0 0 120.01 120.01">
  <defs>
    <style>
      .cls-1 {
        fill: #373737;
        stroke-width: 0px;
      }
    </style>
  </defs>
  <g id="Layer_1-2" data-name="Layer 1">
    <g>
      <path class="cls-1" d="M66.01,60c-.41,0-.82-.13-1.17-.38-.52-.38-.83-.98-.83-1.62v-10.2c-4.56-.93-8-4.97-8-9.8V10c0-5.51,4.49-10,10-10h44c5.51,0,10,4.49,10,10v28c0,5.51-4.49,10-10,10h-25.57c-5.94,7.87-17.3,11.73-17.8,11.9-.21.07-.42.1-.63.1ZM66.01,4c-3.31,0-6,2.69-6,6v28c0,3.31,2.69,6,6,6,1.1,0,2,.9,2,2v9.05c3.67-1.61,10.27-5.04,13.75-10.17.37-.55.99-.88,1.66-.88h26.6c3.31,0,6-2.69,6-6V10c0-3.31-2.69-6-6-6h-44Z"/>
      <g>
        <path class="cls-1" d="M104.01,20h-32c-1.1,0-2-.9-2-2s.9-2,2-2h32c1.1,0,2,.9,2,2s-.9,2-2,2Z"/>
        <path class="cls-1" d="M104.01,32h-32c-1.1,0-2-.9-2-2s.9-2,2-2h32c1.1,0,2,.9,2,2s-.9,2-2,2Z"/>
      </g>
    </g>
    <g>
      <path class="cls-1" d="M30.41,60.49c-.53,0-1.04-.21-1.41-.59l-19.8-19.8c-.38-.38-.59-.88-.59-1.41s.21-1.04.59-1.41l2.83-2.83c1.89-1.89,4.4-2.93,7.07-2.93s5.18,1.04,7.07,2.93l8.48,8.49c3.9,3.9,3.9,10.24,0,14.14l-2.83,2.83c-.38.38-.88.59-1.41.59ZM13.44,38.69l16.97,16.97,1.41-1.41c2.34-2.34,2.34-6.15,0-8.49l-8.49-8.49c-1.13-1.13-2.64-1.76-4.24-1.76s-3.11.62-4.24,1.76l-1.41,1.41Z"/>
      <path class="cls-1" d="M81.32,111.4c-.53,0-1.04-.21-1.41-.59l-19.8-19.8c-.38-.38-.59-.88-.59-1.41s.21-1.04.59-1.41l2.83-2.83c3.9-3.9,10.24-3.9,14.14,0l8.49,8.49c1.89,1.89,2.93,4.4,2.93,7.07s-1.04,5.18-2.93,7.07l-2.83,2.83c-.38.38-.88.59-1.41.59ZM64.35,89.6l16.97,16.97,1.41-1.41c1.13-1.13,1.76-2.64,1.76-4.24s-.62-3.11-1.76-4.24l-8.49-8.49c-2.34-2.34-6.15-2.34-8.49,0l-1.41,1.41Z"/>
      <path class="cls-1" d="M68.29,120.01c-3.81,0-8.47-1.16-13.78-3.48-9.74-4.26-20.31-11.81-29.76-21.27-9.46-9.46-17.01-20.03-21.27-29.76-4.42-10.1-4.64-17.87-.63-21.88l6.34-6.34c.75-.75,2.08-.75,2.83,0l19.8,19.8c.78.78.78,2.05,0,2.83l-3.06,3.06c-1.38,1.38.93,9.06,10.08,18.21,9.15,9.15,16.83,11.46,18.21,10.08l3.06-3.06c.78-.78,2.05-.78,2.83,0l19.8,19.8c.38.38.59.88.59,1.41s-.21,1.04-.59,1.41l-6.34,6.34c-1.9,1.9-4.66,2.85-8.1,2.85ZM10.61,41.52l-4.93,4.93c-2.69,2.69-2.14,9.21,1.47,17.45,4.06,9.29,11.32,19.42,20.43,28.54,9.11,9.11,19.25,16.37,28.54,20.43,8.24,3.6,14.76,4.15,17.45,1.47l4.93-4.93-16.97-16.97-1.65,1.65c-4.53,4.53-15.43-1.64-23.86-10.08-8.43-8.43-14.6-19.34-10.08-23.86l1.65-1.65-16.97-16.97Z"/>
    </g>
  </g>
</svg>